<mxfile host="app.diagrams.net" modified="2024-06-28T13:44:26.716Z" agent="Mozilla/5.0 (Windows NT 10.0; Win64; x64) AppleWebKit/537.36 (KHTML, like Gecko) Chrome/126.0.0.0 Safari/537.36" version="24.6.2" etag="RNmJpzOIBHKoQZQDVCja" type="github">
  <diagram name="Page-1" id="0oOOH6zQk3KQU_TZKzcD">
    <mxGraphModel>
      <root>
        <mxCell id="0" />
        <mxCell id="1" parent="0" />
      </root>
    </mxGraphModel>
  </diagram>
</mxfile>
